<svg width="24" height="24" fill="none" xmlns="http://www.w3.org/2000/svg"><g clip-path="url(#a)" stroke="#273656" stroke-width="1.5" stroke-linecap="round" stroke-linejoin="round"><path d="M7.5 23.25H.75V15a1.5001 1.5001 0 0 1 1.5-1.5H7.5M16.5 13.5h5.25a1.5001 1.5001 0 0 1 1.5 1.5v8.25H16.5M13.5 19.313A1.416 1.416 0 0 0 12 18a1.416 1.416 0 0 0-1.5 1.313v3.937h3v-3.937ZM12 6.75v-6M12 .75h4a.5002.5002 0 0 1 .5.5v2a.5002.5002 0 0 1-.5.5h-4v-3ZM12 12.75c.8102 0 1.467-.6568 1.467-1.467S12.8102 9.816 12 9.816s-1.467.6568-1.467 1.467.6568 1.467 1.467 1.467Z"/><path d="M16.5 11.118A4.4348 4.4348 0 0 0 12 6.75a4.435 4.435 0 0 0-4.5 4.368V23.25h9V11.118ZM3.75 16.5h.75M3.75 20.25h.75M19.5 16.5h.75M19.5 20.25h.75"/></g><defs><clipPath id="a"><path fill="white" d="M0 0h24v24H0z"/></clipPath></defs></svg>
