<svg width="24" height="24" fill="none" xmlns="http://www.w3.org/2000/svg"><path clip-rule="evenodd" d="M12 23.25c6.2132 0 11.25-5.0368 11.25-11.25S18.2132.75 12 .75.75 5.7868.75 12 5.7868 23.25 12 23.25Z" stroke="#273656" stroke-width="1.5" stroke-linecap="round" stroke-linejoin="round"/><path clip-rule="evenodd" d="M18 9.75h-3.75V6a.75.75 0 0 0-.75-.75h-3a.75.75 0 0 0-.75.75v3.75H6a.75.75 0 0 0-.75.75v3a.75.75 0 0 0 .75.75h3.75V18a.75.75 0 0 0 .75.75h3a.75.75 0 0 0 .75-.75v-3.75H18a.75.75 0 0 0 .75-.75v-3a.75.75 0 0 0-.75-.75Z" stroke="#273656" stroke-width="1.5" stroke-linecap="round" stroke-linejoin="round"/></svg>
