<svg width="24" height="24" fill="none" xmlns="http://www.w3.org/2000/svg"><path d="M8.25 11.5h7.5" stroke="#273656" stroke-width="1.5" stroke-linecap="round" stroke-linejoin="round"/><path clip-rule="evenodd" d="M6.75 17.5c-.8284 0-1.5-.6716-1.5-1.5V7c0-.8284.6716-1.5 1.5-1.5s1.5.6716 1.5 1.5v9c0 .8284-.6716 1.5-1.5 1.5Z" stroke="#273656" stroke-width="1.5" stroke-linecap="round" stroke-linejoin="round"/><path d="M2.25 11.5H.75" stroke="#273656" stroke-width="1.5" stroke-linecap="round" stroke-linejoin="round"/><path clip-rule="evenodd" d="M3.75 8.5c-.8284 0-1.5.6716-1.5 1.5v3c0 .8284.6716 1.5 1.5 1.5s1.5-.6716 1.5-1.5v-3c0-.8284-.6716-1.5-1.5-1.5ZM17.25 17.5c.8284 0 1.5-.6716 1.5-1.5V7c0-.8284-.6716-1.5-1.5-1.5s-1.5.6716-1.5 1.5v9c0 .8284.6716 1.5 1.5 1.5Z" stroke="#273656" stroke-width="1.5" stroke-linecap="round" stroke-linejoin="round"/><path d="M21.75 11.5h1.5" stroke="#273656" stroke-width="1.5" stroke-linecap="round" stroke-linejoin="round"/><path clip-rule="evenodd" d="M20.25 8.5c.8284 0 1.5.6716 1.5 1.5v3c0 .8284-.6716 1.5-1.5 1.5s-1.5-.6716-1.5-1.5v-3c0-.8284.6716-1.5 1.5-1.5Z" stroke="#273656" stroke-width="1.5" stroke-linecap="round" stroke-linejoin="round"/></svg>
