<svg width="24" height="24" fill="none" xmlns="http://www.w3.org/2000/svg"><path d="M17.107 3.615h.869c1.3572-.0713 2.5196.9618 2.608 2.318v0c-.089 1.3559-1.2512 2.3884-2.608 2.317h-.869" stroke="#273656" stroke-width="1.5" stroke-linecap="round" stroke-linejoin="round"/><path clip-rule="evenodd" d="M14.77 13.663a.864.864 0 0 0-.809-.562H9.97a.8658.8658 0 0 0-.81.562l-2.136 5.7a.863.863 0 0 0 .376 1.046c2.7839 1.7879 6.355 1.7879 9.139 0a.865.865 0 0 0 .372-1.049l-2.141-5.697Z" stroke="#273656" stroke-width="1.5" stroke-linecap="round" stroke-linejoin="round"/><path d="m9.1 13.8211-2.648-1.028a.658.658 0 0 0-.728.175l-3.079 3.448a.609.609 0 0 0-.025.845 7.5127 7.5127 0 0 0 4.468 1.927" stroke="#273656" stroke-width="1.5" stroke-linecap="round" stroke-linejoin="round"/><path d="M2.7 16.358a6.175 6.175 0 0 1-1.766-5.887.751.751 0 0 1 .526-.571.67.67 0 0 1 .749.2 6.2263 6.2263 0 0 0 3.264 3.15M14.9 13.8211l2.649-1.028a.658.658 0 0 1 .728.175l3.079 3.448a.609.609 0 0 1 .025.845 7.513 7.513 0 0 1-4.468 1.927" stroke="#273656" stroke-width="1.5" stroke-linecap="round" stroke-linejoin="round"/><path d="M21.3 16.358a6.1753 6.1753 0 0 0 1.763-5.887.751.751 0 0 0-.523-.571.67.67 0 0 0-.749.2 6.2264 6.2264 0 0 1-3.264 3.15M17.107 10.5V3.75c0-.8284-.6716-1.5-1.5-1.5h-7.5c-.8284 0-1.5.6716-1.5 1.5v6.671" stroke="#273656" stroke-width="1.5" stroke-linecap="round" stroke-linejoin="round"/></svg>
