<svg width="24" height="24" fill="none" xmlns="http://www.w3.org/2000/svg"><path d="M8 18.25H1.25a.375.375 0 0 1-.3-.6l3.6-4.8a.375.375 0 0 0-.3-.6h-1.5a.375.375 0 0 1-.3-.6l3.6-4.8a.375.375 0 0 0-.3-.6h-.771a.374.374 0 0 1-.3-.593L7.7 1.427a.375.375 0 0 1 .61 0l3.021 4.23a.3741.3741 0 0 1-.3.593h-.781a.375.375 0 0 0-.3.6l2.907 3.875M8 18.25v4.5M12.5 19.75v-4.5c0-.8284.6716-1.5 1.5-1.5h6c.8284 0 1.5.6716 1.5 1.5v4.5M11 19.75h12M14 19.75v3M20 19.75v3" stroke="#273656" stroke-width="1.5" stroke-linecap="round" stroke-linejoin="round"/></svg>
