<svg width="24" height="24" fill="none" xmlns="http://www.w3.org/2000/svg"><path d="M6 19.1251h9.921a1.5 1.5 0 0 0 1.479-1.249l2.637-15.5a1.5 1.5 0 0 1 1.479-1.248h.984M7.875 21.375a.375.375 0 1 1 0 .7501.375.375 0 0 1 0-.7501ZM15.375 21.375a.3747.3747 0 0 1 .3465.2315.3755.3755 0 0 1-.0813.4087.3759.3759 0 0 1-.4087.0813.3752.3752 0 0 1-.1217-.6117.3752.3752 0 0 1 .2652-.1098" stroke="#273656" stroke-width="1.5" stroke-linecap="round" stroke-linejoin="round"/><path d="M17.953 14.6251H5.882a3 3 0 0 1-2.91-2.272l-1.45-5.8a.75.75 0 0 1 .728-.932h17.234M6 8.625v2.25M10.5 8.625v2.25M15 8.625v2.25" stroke="#273656" stroke-width="1.5" stroke-linecap="round" stroke-linejoin="round"/></svg>
