<svg width="24" height="24" fill="none" xmlns="http://www.w3.org/2000/svg"><path clip-rule="evenodd" d="M16.875 12.75c3.3137 0 6-2.6863 6-6s-2.6863-6-6-6-6 2.6863-6 6 2.6863 6 6 6Z" stroke="#273656" stroke-width="1.5" stroke-linecap="round" stroke-linejoin="round"/><path d="M15.375 6.75h1.5c.8284 0 1.5-.6716 1.5-1.5s-.6716-1.5-1.5-1.5h-1.5v6M3.327 13.607l1.75-3.9A2.251 2.251 0 0 1 7.184 8.25h.691M1.875 20.049v1.7c0 .8284.6716 1.5 1.5 1.5s1.5-.6716 1.5-1.5v-1.5M21.375 20.049v1.7c0 .8284-.6716 1.5-1.5 1.5s-1.5-.6716-1.5-1.5v-1.5M18.75 16.5a.375.375 0 0 1 .375.375M18.375 16.875a.375.375 0 0 1 .375-.375M18.75 17.25a.375.375 0 0 1-.375-.375M19.125 16.875a.375.375 0 0 1-.375.375M4.5 16.5a.375.375 0 0 0-.375.375M4.875 16.875A.375.375 0 0 0 4.5 16.5M4.5 17.25a.375.375 0 0 0 .375-.375M4.125 16.875a.375.375 0 0 0 .375.375" stroke="#273656" stroke-width="1.5" stroke-linecap="round" stroke-linejoin="round"/><path d="M10.875 13.5h-6.75c-1.6568 0-3 1.3431-3 3v2.25c0 .8284.6716 1.5 1.5 1.5h18c.8284 0 1.5-.6716 1.5-1.5V16.5a2.9771 2.9771 0 0 0-.4-1.5" stroke="#273656" stroke-width="1.5" stroke-linecap="round" stroke-linejoin="round"/></svg>
