<svg width="24" height="24" fill="none" xmlns="http://www.w3.org/2000/svg"><path d="M13.811 9.311 11.25 6.75V1.5a.7498.7498 0 0 0-.75-.75H9a.75.75 0 0 0-.75.75v5.25L5.689 9.311a1.5 1.5 0 0 0-.439 1.06V21.75a1.5001 1.5001 0 0 0 1.5 1.5h3.75M8.25 4.5h3" stroke="#273656" stroke-width="1.5" stroke-linecap="round" stroke-linejoin="round"/><path d="M18.75 15.682a3 3 0 0 1-6 0V12h6v3.682ZM15.75 18.75v4.5M18 23.25h-4.5" stroke="#273656" stroke-width="1.5" stroke-linecap="round" stroke-linejoin="round"/></svg>
