<svg width="24" height="24" fill="none" xmlns="http://www.w3.org/2000/svg"><g clip-path="url(#a)" stroke="#273656" stroke-width="1.5" stroke-linecap="round" stroke-linejoin="round"><path d="M12 13.801c2.0711 0 3.75-1.6789 3.75-3.75 0-2.071-1.6789-3.75-3.75-3.75-2.071 0-3.75 1.679-3.75 3.75 0 2.0711 1.679 3.75 3.75 3.75Z"/><path d="M20.25 4.051H18l-.671-1.342a3.0005 3.0005 0 0 0-2.683-1.658H9.354a3 3 0 0 0-2.683 1.658L6 4.051H3.75a3 3 0 0 0-3 3v7.5a2.9998 2.9998 0 0 0 3 3H8l3.376 5.064a.7501.7501 0 0 0 1.248 0L16 17.551h4.25a2.9997 2.9997 0 0 0 3-3v-7.5a3 3 0 0 0-3-3v0Z"/></g><defs><clipPath id="a"><path fill="white" d="M0 0h24v24H0z"/></clipPath></defs></svg>
