<svg width="24" height="24" fill="none" xmlns="http://www.w3.org/2000/svg"><g clip-path="url(#a)" stroke="#273656" stroke-width="1.5" stroke-linecap="round" stroke-linejoin="round"><path d="M17.174 8.25H4.561a1.5 1.5 0 0 0-1.436 1.413l-2 11.842a1.5328 1.5328 0 0 0 1.437 1.745h16.611a1.5322 1.5322 0 0 0 1.1024-.5563 1.5326 1.5326 0 0 0 .3346-1.1887l-2-11.842a1.5001 1.5001 0 0 0-1.436-1.413ZM14.553 5.307a3.7628 3.7628 0 0 0-3.685-3.057v0a3.764 3.764 0 0 0-3.682 3.038M20.618.75 18.368 3v2.25h2.25L22.868 3 20.618.75Z"/></g><defs><clipPath id="a"><path fill="white" d="M0 0h24v24H0z"/></clipPath></defs></svg>
