<svg width="24" height="24" fill="none" xmlns="http://www.w3.org/2000/svg"><path clip-rule="evenodd" d="M3 15.75c1.243 0 2.25-1.679 2.25-3.75 0-2.071-1.007-3.75-2.25-3.75S.75 9.929.75 12c0 2.071 1.007 3.75 2.25 3.75zM8.25 8.25c1.243 0 2.25-1.679 2.25-3.75C10.5 2.429 9.493.75 8.25.75S6 2.429 6 4.5c0 2.071 1.007 3.75 2.25 3.75zM21 15c1.243 0 2.25-1.679 2.25-3.75 0-2.071-1.007-3.75-2.25-3.75s-2.25 1.679-2.25 3.75c0 2.071 1.007 3.75 2.25 3.75zM15.75 8.25C16.993 8.25 18 6.571 18 4.5 18 2.429 16.993.75 15.75.75S13.5 2.429 13.5 4.5c0 2.071 1.007 3.75 2.25 3.75zM16.324 15.653c-.385-.3-.6-.77-.578-1.257v-.146a3.75 3.75 0 10-7.5 0v.146a1.5 1.5 0 01-.578 1.257A3.963 3.963 0 006 18.75c0 2.485 2.686 4.5 6 4.5s6-2.015 6-4.5a3.963 3.963 0 00-1.676-3.097z" stroke="#273656" stroke-width="1.5" stroke-linecap="round" stroke-linejoin="round"/></svg>
